<?xml version="1.0" encoding="utf-8"?>
<svg version="1.1" xmlns:xlink="http://www.w3.org/1999/xlink" width="29px" height="18px" xmlns="http://www.w3.org/2000/svg">
  <g transform="matrix(1 0 0 1 -1131 -191 )">
    <path d="M 29 2.55481727574751  C 29.046511627907 1.27906976744186  27.9833887043189 0.215946843853823  26.7076411960133 0.215946843853823  L 14.8006644518272 0.215946843853823  C 13.5249169435216 0.215946843853823  12.4617940199336 1.25249169435216  12.4617940199336 2.55481727574751  L 12.4617940199336 4.09634551495017  L 10.4950166112957 3.03322259136213  C 9.88372093023256 2.71428571428571  9.16611295681063 2.84717607973422  8.74086378737542 3.37873754152824  C 8.3156146179402 3.91029900332226  8.3421926910299 4.65448504983389  8.82059800664452 5.15946843853821  L 11.0797342192691 7.6046511627907  L 1.51162790697675 7.6046511627907  C 1.19269102990033 7.6046511627907  0.953488372093023 7.84385382059801  0.953488372093023 8.16279069767442  L 0.953488372093023 11.0332225913621  C 0.953488372093023 11.3521594684385  1.19269102990033 11.5913621262458  1.51162790697675 11.5913621262458  L 11.1063122923588 11.5913621262458  L 8.68770764119602 14.2491694352159  C 8.2358803986711 14.7541528239203  8.2093023255814 15.4983388704319  8.63455149501661 16.0299003322259  C 8.90033222591362 16.375415282392  9.29900332225914 16.5614617940199  9.69767441860465 16.5614617940199  C 9.91029900332226 16.5614617940199  10.1495016611296 16.5083056478405  10.3621262458472 16.375415282392  L 13.0996677740864 14.8604651162791  L 13.0996677740864 15.4186046511628  C 13.0996677740864 16.6943521594684  14.1362126245847 17.7574750830565  15.4385382059801 17.7574750830565  L 26.6544850498339 17.7574750830565  C 27.9302325581395 17.7574750830565  28.9933554817276 16.7209302325581  29 15.4186046511628  L 29 2.55481727574751  Z M 19.9302325581395 9.89036544850498  L 9.85714285714286 15.3920265780731  C 9.69767441860465 15.4717607973422  9.59136212624585 15.3920265780731  9.53820598006645 15.3388704318937  C 9.48504983388704 15.2857142857143  9.43189368770764 15.1528239202658  9.53820598006645 15.0199335548173  L 12.8073089700997 11.4053156146179  C 12.9667774086379 11.2458471760797  12.9933554817276 11.0066445182724  12.9136212624585 10.7940199335548  C 12.8338870431894 10.5813953488372  12.6212624584718 10.4485049833887  12.4086378737542 10.4485049833887  L 2.09634551495017 10.4485049833887  L 2.09634551495017 9  L 12.3820598006645 9  C 12.5946843853821 8.72093023255814  12.8073089700997 8.58803986710964  12.8870431893688 8.37541528239203  C 12.9667774086379 8.16279069767442  12.9401993355482 7.92358803986711  12.78073089701 7.76411960132891  L 9.67109634551495 4.38870431893688  C 9.53820598006645 4.25581395348837  9.61794019933555 4.12292358803987  9.67109634551495 4.06976744186047  C 9.72425249169435 4.01661129568106  9.83056478405316 3.91029900332226  9.99003322259136 4.01661129568106  L 19.9302325581395 9.46511627906977  C 20.0365448504983 9.51827242524917  20.063122923588 9.62458471760797  20.063122923588 9.67774086378738  C 20.063122923588 9.73089700996678  20.0365448504983 9.83720930232558  19.9302325581395 9.89036544850498  Z M 28 2.55481727574751  L 28 15.4451827242525  C 27.9036544850498 16.109634551495  27.3720930232558 16.641196013289  26.7076411960133 16.641196013289  L 15.4916943521595 16.641196013289  C 14.8272425249169 16.641196013289  14.2956810631229 16.109634551495  14.2956810631229 15.4451827242525  L 14.2956810631229 14.514950166113  C 14.2956810631229 14.4352159468439  14.2691029900332 14.3554817275748  14.2425249169435 14.2757475083056  L 20.4883720930233 10.8471760797342  C 20.9401993355482 10.6079734219269  21.2059800664452 10.156146179402  21.2059800664452 9.65116279069767  C 21.2059800664452 9.14617940199335  20.9401993355482 8.69435215946844  20.4883720930233 8.45514950166113  L 13.5249169435216 4.65448504983389  C 13.578073089701 4.57475083056478  13.6046511627907 4.46843853820598  13.6046511627907 4.36212624584718  L 13.6046511627907 2.55481727574751  C 13.6046511627907 1.89036544850499  14.1362126245847 1.35880398671096  14.8006644518272 1.35880398671096  L 26.7076411960133 1.35880398671096  C 27.3720930232558 1.35880398671096  27.9036544850498 1.89036544850499  28 2.55481727574751  Z " fill-rule="nonzero" fill="#4e4044" stroke="none" transform="matrix(1 0 0 1 1131 191 )" />
  </g>
</svg>