<?xml version="1.0" encoding="utf-8"?>
<svg version="1.1" xmlns:xlink="http://www.w3.org/1999/xlink" width="18px" height="18px" xmlns="http://www.w3.org/2000/svg">
  <g transform="matrix(1 0 0 1 -1032 -191 )">
    <path d="M 18 4  L 14 0  L 2 0  C 0.9 0  0 0.9  0 2  L 0 16  C 0 17.1  0.9 18  2 18  L 16 18  C 17.1 18  18 17.1  18 16  L 18 4  Z M 16 4.8  L 16 16  L 2 16  L 2 2  L 13.2 2  L 16 4.8  Z M 12 12  C 12 10.3  10.7 9  9 9  C 7.3 9  6 10.3  6 12  C 6 13.7  7.3 15  9 15  C 10.7 15  12 13.7  12 12  Z M 3 7  L 3 3  L 12 3  L 12 7  L 3 7  Z " fill-rule="nonzero" fill="#4e4044" stroke="none" transform="matrix(1 0 0 1 1032 191 )" />
  </g>
</svg>